<?xml version="1.0" standalone="no"?>
<!DOCTYPE svg PUBLIC "-//W3C//DTD SVG 20010904//EN"
 "http://www.w3.org/TR/2001/REC-SVG-20010904/DTD/svg10.dtd">
<svg version="1.0" xmlns="http://www.w3.org/2000/svg"
 width="266.000000pt" height="266.000000pt" viewBox="0 0 266.000000 266.000000"
 preserveAspectRatio="xMidYMid meet">
<metadata>
Created by potrace 1.11, written by Peter Selinger 2001-2013
</metadata>
<g transform="translate(0.000000,266.000000) scale(0.100000,-0.100000)"
fill="#000000" stroke="none">
<path d="M40 1320 l0 -1300 1290 0 1290 0 0 30 c0 23 4 30 20 30 20 0 20 7 20
1260 0 1253 0 1260 -20 1260 -11 0 -20 5 -20 10 0 7 -437 10 -1290 10 l-1290
0 0 -1300z m200 1120 l0 -60 -60 0 -60 0 0 60 0 60 60 0 60 0 0 -60z m2240 0
l0 -60 -60 0 -60 0 0 60 0 60 60 0 60 0 0 -60z m-1360 -180 c0 -13 7 -20 20
-20 17 0 20 -7 20 -50 0 -43 3 -50 20 -50 17 0 20 -7 20 -50 0 -49 1 -50 30
-50 l30 0 0 -270 0 -270 -150 0 -150 0 0 190 0 190 -40 0 -40 0 0 -180 c0
-173 1 -180 20 -180 16 0 20 -7 20 -30 0 -23 4 -30 20 -30 13 0 20 -7 20 -20
0 -17 7 -20 50 -20 43 0 50 -3 50 -20 0 -17 7 -20 50 -20 49 0 50 -1 50 -30 0
-23 4 -30 20 -30 17 0 20 -7 20 -50 0 -49 1 -50 30 -50 l30 0 0 -310 0 -310
-30 0 c-29 0 -30 -1 -30 -50 0 -43 -3 -50 -20 -50 -17 0 -20 -7 -20 -50 0 -43
-3 -50 -20 -50 -13 0 -20 -7 -20 -20 0 -19 -7 -20 -180 -20 -113 0 -180 -4
-180 -10 0 -5 -9 -10 -20 -10 -16 0 -20 7 -20 30 0 27 -3 30 -30 30 -29 0 -30
1 -30 50 0 43 -3 50 -20 50 -17 0 -20 7 -20 40 0 30 -4 40 -16 40 -41 0 -44
17 -44 280 0 205 3 254 14 266 11 11 45 14 146 14 101 0 135 -3 146 -14 11
-12 14 -53 14 -200 l0 -186 26 0 c51 0 54 12 54 224 l0 196 -50 0 c-49 0 -50
1 -50 30 0 29 -1 30 -50 30 -43 0 -50 3 -50 20 0 17 -7 20 -50 20 -43 0 -50 3
-50 20 0 13 -7 20 -20 20 -17 0 -20 7 -20 50 0 39 -4 50 -16 50 -42 0 -44 14
-44 334 l0 306 30 0 c29 0 30 1 30 50 0 43 3 50 20 50 17 0 20 7 20 50 0 49 1
50 30 50 23 0 30 4 30 20 0 19 7 20 200 20 193 0 200 -1 200 -20z m780 0 c0
-13 7 -20 20 -20 17 0 20 -7 20 -50 0 -49 1 -50 30 -50 29 0 30 -1 30 -50 0
-43 3 -50 20 -50 20 0 20 -7 20 -270 l0 -270 -150 0 -150 0 0 190 0 190 -40 0
-40 0 0 -570 0 -570 40 0 40 0 0 200 0 200 150 0 150 0 0 -270 c0 -263 0 -270
-20 -270 -17 0 -20 -7 -20 -50 0 -49 -1 -50 -30 -50 -29 0 -30 -1 -30 -50 0
-43 -3 -50 -20 -50 -13 0 -20 -7 -20 -20 0 -19 -7 -20 -179 -20 -134 0 -180
-3 -183 -12 -6 -17 -38 14 -38 36 0 9 -8 16 -20 16 -17 0 -20 7 -20 50 0 49
-1 50 -30 50 -28 0 -30 2 -30 40 0 33 -3 40 -20 40 -20 0 -20 7 -20 730 0 723
0 730 20 730 17 0 20 7 20 50 0 49 1 50 30 50 29 0 30 1 30 50 0 43 3 50 20
50 13 0 20 7 20 20 0 19 7 20 200 20 193 0 200 -1 200 -20z m-1660 -2040 l0
-60 -60 0 -60 0 0 60 0 60 60 0 60 0 0 -60z m2260 0 l0 -60 -60 0 -60 0 0 60
0 60 60 0 60 0 0 -60z"/>
</g>
</svg>
